<mxfile host="app.diagrams.net" modified="2024-04-25T06:48:30.593Z" agent="Mozilla/5.0 (Windows NT 10.0; Win64; x64) AppleWebKit/537.36 (KHTML, like Gecko) Chrome/123.0.0.0 Safari/537.36" version="24.3.0" etag="q5sV5l1xjrAeVAu99RYF" type="github">
  <diagram name="第 1 页" id="rFbDnGH42VdLy75OLdn3">
    <mxGraphModel>
      <root>
        <mxCell id="0" />
        <mxCell id="1" parent="0" />
      </root>
    </mxGraphModel>
  </diagram>
</mxfile>
